<?xml version="1.0" encoding="UTF-8"?>
<svg id="Layer_1" data-name="Layer 1" xmlns="http://www.w3.org/2000/svg" viewBox="0 0 281.51 193.62">
  <defs>
    <style>
      .cls-1 {
        fill: #f4f4f4;
        stroke-width: 0px;
      }
    </style>
  </defs>
  <g>
    <path class="cls-1" d="m172.49,70.15h23.62V24.19c0-12.02,9.74-22.77,21.77-22.77h1.85V0h-70.72v1.43s4.47,0,4.47,0c10.51,0,19.02,10.41,19.02,20.91v44.97"/>
    <path class="cls-1" d="m279.47,105.7v12.51c0,16.29-13.2,29.49-29.49,29.49h-24.38c-16.29,0-29.49-13.2-29.49-29.49v-37.09h-23.62v46.15c0,11.92-9.66,20.43-21.58,20.43h-1.91v2.68h132.51v-44.68h-2.04Z"/>
  </g>
  <g>
    <path class="cls-1" d="m23.49,70.15h109.06v-.77l-85.45-2.62V24.19c0-12.02,9.74-22.77,21.77-22.77h14.85V0H0v1.43s4.47,0,4.47,0c10.51,0,19.02,10.41,19.02,20.91v44.97"/>
    <path class="cls-1" d="m130.47,105.7v12.51c0,16.29-13.2,29.49-29.49,29.49h-24.38c-16.29,0-29.49-13.2-29.49-29.49v-33.32l85.45-2.87v-.89H23.49v46.15c0,11.92-9.66,20.43-21.58,20.43H0v2.68h132.51v-44.68h-2.04Z"/>
  </g>
  <g>
    <path class="cls-1" d="m12.38,185.81l4.54-4.64-1.51,4.9H.58l1.94-2.02v-21.17l-1.94-2.02h6.05l-1.94,2.02v22.93h7.7Z"/>
    <path class="cls-1" d="m40.75,179.15c0,3.06-2.48,7.09-7.49,7.09-4.68,0-9.68-3.28-9.68-8.93s4.25-9.43,9.11-9.43c3.42,0,6.23,1.55,8.03,4.25h-8.14c4.68.4,8.17,2.92,8.17,7.02Zm-9.61-7.02h-4.39c-.68,1.19-1.01,2.56-1.01,4,0,4.75,3.6,9,7.92,9s6.7-2.92,6.7-6.08c0-3.82-3.42-6.91-9.21-6.91Zm6.62-.25c-.76-2.27-2.77-3.31-4.9-3.31-2.56,0-4.46,1.26-5.9,3.31h10.8Z"/>
    <path class="cls-1" d="m63,184.05l1.94,2.02h-4.1v-4.32c-.97,2.92-3.28,4.39-6.12,4.39-3.42,0-6.37-2.66-6.37-6.16s2.77-5.98,6.37-5.98c1.69,0,2.88.43,3.67.97-1.44-1.58-3.35-2.74-5.58-2.74h-1.62c1.51-2.7,3.85-4.25,6.88-4.25s4.9,1.83,4.93,4.86v11.19Zm-7.74-9.79c-2.92,0-4.75,2.12-4.75,4.9,0,3.24,2.77,5.9,5.76,5.9,2.81,0,4.54-2.27,4.54-4.72,0-2.63-1.8-6.08-5.54-6.08Zm2.66-5.79c-2.12,0-3.56,1.3-4.18,3.6,3.24.43,6.3,3.67,7.09,6.62v-6.08c0-2.56-.76-4.14-2.92-4.14Z"/>
    <path class="cls-1" d="m81.83,168.03l-.54,2.45c-3.24-.11-5.9.83-5.9,2.99v10.58l1.94,2.02h-6.05l1.94-2.02v-13.39l-1.94-1.3,4.1-1.3v4.5h.04c.47-3.1,2.66-4.07,6.41-4.54Z"/>
    <path class="cls-1" d="m104.07,184.05l1.94,2.02h-6.05l1.94-2.02v-10.01c0-3.35-2.3-5.58-4.82-5.58-1.76,0-3.24,1.12-4.72,2.66v12.92l1.94,2.02h-6.05l1.94-2.02v-13.35l-1.94-1.3,4.1-1.3v2.63c1.87-1.76,3.42-2.77,5.76-2.77,3.02,0,5.94,2.09,5.94,6.23v9.86Z"/>
    <path class="cls-1" d="m116.39,184.05l1.94,2.02h-6.05l1.94-2.02v-13.39l-1.94-1.3,4.1-1.3v15.98Zm-2.99-20.12c0-.9.72-1.62,1.62-1.62s1.62.72,1.62,1.62-.72,1.62-1.62,1.62-1.62-.72-1.62-1.62Z"/>
    <path class="cls-1" d="m140.51,184.05l1.94,2.02h-6.05l1.94-2.02v-10.01c0-3.35-2.3-5.58-4.82-5.58-1.76,0-3.24,1.12-4.72,2.66v12.92l1.94,2.02h-6.05l1.94-2.02v-13.35l-1.94-1.3,4.1-1.3v2.63c1.87-1.76,3.42-2.77,5.76-2.77,3.02,0,5.94,2.09,5.94,6.23v9.86Z"/>
    <path class="cls-1" d="m168.8,188.37c0,2.34-2.23,4.18-4.82,4.18-2.02,0-4.07-.79-5.51-2.52-1.15,2.2-2.77,3.6-5.25,3.6s-4.5-1.8-4.5-3.92c0-1.91,1.26-3.53,4.68-4.43l4.28-1.12c-.29.04-.54.04-.83.04-4.68,0-8.14-3.82-8.14-8.17s3.56-8.13,8.14-8.13c1.69,0,3.38.5,4.71,1.51l4.54-2.52v2.77h-3.71v.36c1.73,1.62,2.66,3.64,2.66,5.97,0,3.89-2.63,7.06-6.16,8.06l-5.58,1.58c-2.45.68-3.92,1.91-3.92,3.6,0,1.33,1.19,1.94,2.7,1.94,5.29,0,7.88-6.52,12.6-6.52,2.41,0,4.1,1.55,4.1,3.71Zm-5.47-10.33c0-4.36-3.85-9.36-8.1-9.43-2.84-.04-4.79,2.3-4.79,5.4,0,5.18,4.21,9.47,8.13,9.47,2.81,0,4.75-2.23,4.75-5.44Zm.04,7.38c-2.41,0-3.96,2.7-4.75,4.32,1.22,1.48,3.02,2.48,5.11,2.3,1.84-.14,2.84-1.33,2.99-2.81.18-1.98-1.19-3.82-3.35-3.82Z"/>
    <path class="cls-1" d="m210.74,185.81l4.54-4.64-1.51,4.9h-14.83l1.94-2.02v-21.17l-1.94-2.02h6.05l-1.94,2.02v22.93h7.7Z"/>
    <path class="cls-1" d="m236.3,184.05l1.94,2.02h-4.1v-4.32c-.97,2.92-3.28,4.39-6.12,4.39-3.42,0-6.37-2.66-6.37-6.16s2.77-5.98,6.37-5.98c1.69,0,2.88.43,3.67.97-1.44-1.58-3.35-2.74-5.58-2.74h-1.62c1.51-2.7,3.85-4.25,6.88-4.25s4.9,1.83,4.93,4.86v11.19Zm-7.74-9.79c-2.92,0-4.75,2.12-4.75,4.9,0,3.24,2.77,5.9,5.76,5.9,2.81,0,4.54-2.27,4.54-4.72,0-2.63-1.8-6.08-5.54-6.08Zm2.66-5.79c-2.12,0-3.56,1.3-4.18,3.6,3.24.43,6.3,3.67,7.09,6.62v-6.08c0-2.56-.76-4.14-2.92-4.14Z"/>
    <path class="cls-1" d="m247.82,161.23v9.68c1.33-1.62,3.46-2.95,5.69-2.95,5.04,0,8.57,4.14,8.57,9.11s-3.67,9.11-8.17,9.11c-2.95,0-4.64-1.19-6.08-2.95l-1.12,2.84h-1.04v-22.25l-1.94-1.3,4.1-1.3Zm5.65,24.55c3.56,0,6.01-4.5,6.01-8.71,0-4.79-2.84-8.78-5.97-8.78-2.2,0-4.39,1.3-5.69,3.1v11.34c1.37,1.91,3.2,3.1,5.65,3.06Z"/>
    <path class="cls-1" d="m280.98,181.78c0,2.59-2.38,4.28-5.25,4.28h-6.01l-.94-4.21,3.85,3.38c.9.36,2.16.61,3.1.61,2.48,0,4.68-1.3,4.68-3.24,0-2.16-3.35-3.67-5.65-4.75-1.98-.86-5.44-2.81-5.44-5.83,0-2.7,2.12-3.96,4.54-3.96h5.22l.94,4.07-3.71-3.31c-.86-.4-1.62-.54-2.45-.54-2.05,0-4,1.04-4,2.7,0,2.05,3.2,3.67,5,4.43,2.59,1.12,6.12,2.38,6.12,6.37Z"/>
  </g>
</svg>